<svg width="100" height="25" viewBox="0 0 100 25" fill="none" xmlns="http://www.w3.org/2000/svg">
<path d="M11.9999 2.59058C6.41266 2.59058 1.86694 7.13891 1.86694 12.7296C1.86694 18.3204 6.41266 22.8686 11.9999 22.8686C17.5874 22.8686 22.1333 18.3204 22.1333 12.7296C22.1331 7.13891 17.5872 2.59058 11.9999 2.59058ZM11.9999 21.8686C6.96367 21.8686 2.86637 17.7689 2.86637 12.7296C2.86637 7.69041 6.96367 3.59058 11.9999 3.59058C17.0362 3.59058 21.1338 7.69041 21.1338 12.7296C21.1337 17.7689 17.0362 21.8686 11.9999 21.8686Z" fill="white"/>
<path d="M16.5251 9.42621C16.758 9.30588 17.3157 8.94838 17.5785 8.18105C17.5785 8.18105 16.945 8.63938 16.0829 8.69338L16.0672 8.70205C15.8413 8.45468 15.5663 8.25719 15.2597 8.12223C14.9532 7.98726 14.6218 7.91777 14.2869 7.91821C12.953 7.91821 11.8718 9.00021 11.8718 10.3349C11.8718 10.5374 11.897 10.734 11.9441 10.922L11.9324 10.9045C11.9324 10.9045 9.3456 11.0529 6.90683 8.38338C6.90683 8.38338 5.82862 10.2169 7.67473 11.619C7.27046 11.6864 6.55654 11.3224 6.55654 11.3224C6.55654 11.3224 6.59685 13.25 8.51008 13.722C8.20026 13.803 7.62076 13.8297 7.4322 13.749C7.4322 13.749 7.71504 15.2184 9.66891 15.4747C9.17036 15.7579 8.24073 16.6205 6.13861 16.4587C6.13861 16.4587 7.64807 17.6989 10.4506 17.5239C13.2532 17.3489 15.2878 15.461 16.1097 13.4659C16.9316 11.4707 16.7029 10.3347 16.7029 10.3347C16.7029 10.3347 17.3896 9.97405 17.8617 9.11138C17.6436 9.17671 16.8349 9.37438 16.534 9.44755C16.5309 9.44048 16.528 9.43337 16.5251 9.42621Z" fill="white"/>
<rect x="40.5" y="3.22949" width="19" height="19" rx="9.5" stroke="white"/>
<path d="M50 11.4895C49.7548 11.4895 49.515 11.5622 49.3111 11.6985C49.1072 11.8347 48.9482 12.0284 48.8544 12.255C48.7605 12.4815 48.736 12.7309 48.7838 12.9714C48.8317 13.2119 48.9498 13.4329 49.1232 13.6063C49.2966 13.7797 49.5176 13.8978 49.7581 13.9457C49.9986 13.9935 50.2479 13.969 50.4745 13.8751C50.7011 13.7813 50.8948 13.6223 51.031 13.4184C51.1673 13.2145 51.24 12.9747 51.24 12.7295C51.24 12.5667 51.2079 12.4054 51.1456 12.255C51.0833 12.1045 50.992 11.9678 50.8768 11.8527C50.7617 11.7375 50.625 11.6462 50.4745 11.5839C50.3241 11.5216 50.1628 11.4895 50 11.4895ZM54.965 10.2645C54.9624 9.87837 54.8913 9.49578 54.755 9.13449C54.6546 8.87012 54.4994 8.63004 54.2994 8.43008C54.0995 8.23013 53.8594 8.07485 53.595 7.97449C53.2337 7.83822 52.8511 7.76712 52.465 7.76449C51.82 7.72949 51.63 7.72949 50 7.72949C48.37 7.72949 48.18 7.72949 47.535 7.76449C47.1489 7.76712 46.7663 7.83822 46.405 7.97449C46.1406 8.07485 45.9005 8.23013 45.7006 8.43008C45.5006 8.63004 45.3454 8.87012 45.245 9.13449C45.1087 9.49578 45.0376 9.87837 45.035 10.2645C45 10.9095 45 11.0995 45 12.7295C45 14.3595 45 14.5495 45.035 15.1945C45.0404 15.582 45.1114 15.9657 45.245 16.3295C45.3449 16.5927 45.5001 16.8313 45.7 17.0295C45.8991 17.2306 46.1397 17.3859 46.405 17.4845C46.7663 17.6208 47.1489 17.6919 47.535 17.6945C48.18 17.7295 48.37 17.7295 50 17.7295C51.63 17.7295 51.82 17.7295 52.465 17.6945C52.8511 17.6919 53.2337 17.6208 53.595 17.4845C53.8603 17.3859 54.1009 17.2306 54.3 17.0295C54.4999 16.8313 54.6551 16.5927 54.755 16.3295C54.8911 15.9664 54.9622 15.5822 54.965 15.1945C55 14.5495 55 14.3595 55 12.7295C55 11.0995 55 10.9095 54.965 10.2645ZM53.695 14.2645C53.679 14.573 53.6131 14.877 53.5 15.1645C53.4029 15.4043 53.2586 15.6222 53.0757 15.8052C52.8927 15.9881 52.6748 16.1324 52.435 16.2295C52.1448 16.3363 51.8391 16.3954 51.53 16.4045C51.135 16.4045 51.03 16.4045 50 16.4045C48.97 16.4045 48.865 16.4045 48.47 16.4045C48.1609 16.3954 47.8552 16.3363 47.565 16.2295C47.3171 16.1374 47.0931 15.9904 46.91 15.7995C46.7288 15.6201 46.5889 15.4034 46.5 15.1645C46.3928 14.8746 46.3353 14.5686 46.33 14.2595C46.33 13.8645 46.33 13.7595 46.33 12.7295C46.33 11.6995 46.33 11.5945 46.33 11.1995C46.3353 10.8904 46.3928 10.5844 46.5 10.2945C46.5921 10.0465 46.7391 9.82263 46.93 9.63949C47.1102 9.4593 47.3266 9.31954 47.565 9.22949C47.8552 9.1227 48.1609 9.0636 48.47 9.05449C48.865 9.05449 48.97 9.05449 50 9.05449C51.03 9.05449 51.135 9.05449 51.53 9.05449C51.8391 9.0636 52.1448 9.1227 52.435 9.22949C52.6829 9.32163 52.9069 9.46863 53.09 9.65949C53.2712 9.83887 53.4111 10.0556 53.5 10.2945C53.6068 10.5847 53.6659 10.8904 53.675 11.1995C53.675 11.5945 53.675 11.6995 53.675 12.7295C53.675 13.7595 53.71 13.8645 53.695 14.2595V14.2645ZM52.895 10.5445C52.8355 10.383 52.7416 10.2363 52.6199 10.1146C52.4982 9.99288 52.3515 9.89902 52.19 9.83949C51.9682 9.76262 51.7347 9.72539 51.5 9.72949C51.11 9.72949 51 9.72949 50 9.72949C49 9.72949 48.89 9.72949 48.5 9.72949C48.2641 9.7318 48.0305 9.77581 47.81 9.85949C47.651 9.91632 47.5058 10.0063 47.3843 10.1236C47.2627 10.2408 47.1675 10.3826 47.105 10.5395C47.0324 10.7622 46.9969 10.9953 47 11.2295C47 11.6195 47 11.7295 47 12.7295C47 13.7295 47 13.8395 47 14.2295C47.005 14.4651 47.0489 14.6982 47.13 14.9195C47.1895 15.081 47.2834 15.2277 47.4051 15.3494C47.5268 15.4711 47.6735 15.565 47.835 15.6245C48.0483 15.7029 48.2728 15.7468 48.5 15.7545C48.89 15.7545 49 15.7545 50 15.7545C51 15.7545 51.11 15.7545 51.5 15.7545C51.7359 15.7522 51.9695 15.7082 52.19 15.6245C52.3515 15.565 52.4982 15.4711 52.6199 15.3494C52.7416 15.2277 52.8355 15.081 52.895 14.9195C52.9787 14.699 53.0227 14.4654 53.025 14.2295C53.025 13.8395 53.025 13.7295 53.025 12.7295C53.025 11.7295 53.025 11.6195 53.025 11.2295C53.0251 10.9934 52.9811 10.7594 52.895 10.5395V10.5445ZM50 14.6395C49.7494 14.6395 49.5013 14.5901 49.2698 14.494C49.0384 14.398 48.8282 14.2572 48.6512 14.0798C48.4742 13.9023 48.334 13.6917 48.2386 13.46C48.1431 13.2283 48.0943 12.9801 48.095 12.7295C48.095 12.3515 48.2071 11.982 48.4172 11.6678C48.6273 11.3536 48.9259 11.1088 49.2752 10.9644C49.6245 10.82 50.0088 10.7825 50.3795 10.8566C50.7501 10.9307 51.0904 11.1131 51.3573 11.3807C51.6243 11.6483 51.8058 11.9891 51.8789 12.3599C51.952 12.7308 51.9135 13.115 51.7682 13.4639C51.6228 13.8128 51.3773 14.1108 51.0625 14.32C50.7477 14.5293 50.378 14.6405 50 14.6395ZM52 11.1945C51.8895 11.1828 51.7872 11.1306 51.7128 11.048C51.6385 10.9654 51.5974 10.8581 51.5974 10.747C51.5974 10.6358 51.6385 10.5286 51.7128 10.446C51.7872 10.3634 51.8895 10.3112 52 10.2995C52.1105 10.3112 52.2128 10.3634 52.2872 10.446C52.3615 10.5286 52.4026 10.6358 52.4026 10.747C52.4026 10.8581 52.3615 10.9654 52.2872 11.048C52.2128 11.1306 52.1105 11.1828 52 11.1945Z" fill="white"/>
<path d="M87.9999 2.59058C82.4127 2.59058 77.8669 7.13891 77.8669 12.7296C77.8669 18.3204 82.4127 22.8686 87.9999 22.8686C93.5874 22.8686 98.1333 18.3204 98.1333 12.7296C98.1331 7.13891 93.5872 2.59058 87.9999 2.59058ZM87.9999 21.8686C82.9637 21.8686 78.8664 17.7689 78.8664 12.7296C78.8664 7.69041 82.9637 3.59058 87.9999 3.59058C93.0362 3.59058 97.1338 7.69041 97.1338 12.7296C97.1337 17.7689 93.0362 21.8686 87.9999 21.8686Z" fill="white"/>
<path d="M91.1233 6.78028H88.9252C88.9202 6.78024 88.9152 6.78046 88.9102 6.78094C86.691 6.78794 86.4012 8.33844 86.4 9.69361C86.3969 9.70644 86.3953 9.71958 86.3953 9.73278V10.6841H84.8765C84.8324 10.6841 84.79 10.7017 84.7587 10.7329C84.7275 10.7642 84.71 10.8066 84.71 10.8508V13.1969C84.71 13.2411 84.7275 13.2835 84.7587 13.3148C84.79 13.3461 84.8324 13.3636 84.8765 13.3636H86.3953V18.5121C86.3953 18.5563 86.4129 18.5987 86.4441 18.63C86.4753 18.6612 86.5177 18.6788 86.5619 18.6788H88.7784C88.8226 18.6788 88.865 18.6612 88.8962 18.63C88.9275 18.5987 88.945 18.5563 88.945 18.5121V13.3638H91.1231C91.1673 13.3638 91.2096 13.3462 91.2409 13.315C91.2721 13.2837 91.2897 13.2413 91.2897 13.1971V10.8509C91.2897 10.8067 91.2721 10.7643 91.2409 10.7331C91.2096 10.7018 91.1673 10.6843 91.1231 10.6843H88.7784V9.42311H91.1231C91.1673 9.42311 91.2096 9.40555 91.2409 9.37429C91.2721 9.34304 91.2897 9.30065 91.2897 9.25644V6.94694C91.2897 6.92506 91.2854 6.9034 91.277 6.88318C91.2687 6.86296 91.2564 6.84458 91.241 6.8291C91.2255 6.81362 91.2072 6.80134 91.187 6.79297C91.1668 6.78459 91.1451 6.78028 91.1233 6.78028Z" fill="white"/>
</svg>
